<svg width="1080" height="644" viewBox="0 0 1080 644" fill="none" xmlns="http://www.w3.org/2000/svg">
<rect width="1080" height="644" fill="white"/>
<path d="M282.456 576.888V568.152C282.456 566.744 281.656 566.04 280.056 566.04H270.84C266.104 566.04 262.744 565.016 260.76 562.968C258.84 560.856 257.88 557.848 257.88 553.944V541.272C257.88 533.336 262.552 529.368 271.896 529.368H285.048C294.392 529.368 299.064 533.336 299.064 541.272V548.664H282.264V543.48C282.264 542.072 281.464 541.368 279.864 541.368H277.08C275.48 541.368 274.68 542.072 274.68 543.48V552.6C274.68 554.008 275.48 554.712 277.08 554.712H286.104C290.84 554.712 294.2 555.704 296.184 557.688C298.232 559.672 299.256 562.584 299.256 566.424V579.096C299.256 587.032 294.584 591 285.24 591H272.184C262.776 591 258.072 587.032 258.072 579.096V571.704H274.872V576.888C274.872 578.296 275.672 579 277.272 579H280.056C281.656 579 282.456 578.296 282.456 576.888ZM330.284 555.096H324.236V576.888C324.236 578.296 325.036 579 326.636 579H330.188V591H322.028C312.62 591 307.916 587.032 307.916 579.096V555.096H302.636V543.096H307.916V533.688H324.236V543.096H330.284V555.096ZM348.211 543.096H360.403C365.267 543.096 368.755 544.12 370.867 546.168C372.979 548.216 374.035 551.16 374.035 555V579.096C374.035 582.936 372.979 585.88 370.867 587.928C368.755 589.976 365.267 591 360.403 591H348.211C343.347 591 339.859 589.976 337.747 587.928C335.635 585.88 334.579 582.936 334.579 579.096V555C334.579 551.16 335.635 548.216 337.747 546.168C339.859 544.12 343.347 543.096 348.211 543.096ZM358.003 577.56V556.536C358.003 555.128 357.203 554.424 355.603 554.424H353.011C351.411 554.424 350.611 555.128 350.611 556.536V577.56C350.611 578.968 351.411 579.672 353.011 579.672H355.603C357.203 579.672 358.003 578.968 358.003 577.56ZM407.678 542.616H409.118V556.824H403.646C399.614 556.824 397.598 559 397.598 563.352V591H381.278V543.096H397.31V550.488C397.822 548.056 398.974 546.136 400.766 544.728C402.558 543.32 404.862 542.616 407.678 542.616ZM426.586 543.096H438.298C447.706 543.096 452.41 547.064 452.41 555V571.32H427.93V577.656C427.93 579.064 428.73 579.768 430.33 579.768H434.554C436.154 579.768 436.954 579 436.954 577.464V574.776H452.41V579.096C452.41 587.032 447.706 591 438.298 591H426.586C417.178 591 412.474 587.032 412.474 579.096V555C412.474 547.064 417.178 543.096 426.586 543.096ZM427.93 562.488H436.954V556.44C436.954 555.032 436.154 554.328 434.554 554.328H430.33C428.73 554.328 427.93 555.032 427.93 556.44V562.488ZM458.621 529.368H487.133C496.541 529.368 501.245 533.336 501.245 541.272V558.936C501.245 566.872 496.541 570.84 487.133 570.84H475.421V591H458.621V529.368ZM484.445 556.728V543.48C484.445 542.072 483.645 541.368 482.045 541.368H475.421V558.84H482.045C483.645 558.84 484.445 558.136 484.445 556.728ZM535.604 529.368H552.116V591H535.604V566.616H523.508V591H506.996V529.368H523.508V554.616H535.604V529.368ZM559.778 529.368H588.29C597.698 529.368 602.402 533.336 602.402 541.272V558.936C602.402 566.872 597.698 570.84 588.29 570.84H576.578V591H559.778V529.368ZM585.602 556.728V543.48C585.602 542.072 584.802 541.368 583.202 541.368H576.578V558.84H583.202C584.802 558.84 585.602 558.136 585.602 556.728ZM650.987 576.888V568.152C650.987 566.744 650.187 566.04 648.587 566.04H639.371C634.635 566.04 631.275 565.016 629.291 562.968C627.371 560.856 626.411 557.848 626.411 553.944V541.272C626.411 533.336 631.083 529.368 640.427 529.368H653.579C662.923 529.368 667.595 533.336 667.595 541.272V548.664H650.795V543.48C650.795 542.072 649.995 541.368 648.395 541.368H645.611C644.011 541.368 643.211 542.072 643.211 543.48V552.6C643.211 554.008 644.011 554.712 645.611 554.712H654.635C659.371 554.712 662.731 555.704 664.715 557.688C666.763 559.672 667.787 562.584 667.787 566.424V579.096C667.787 587.032 663.115 591 653.771 591H640.715C631.307 591 626.603 587.032 626.603 579.096V571.704H643.403V576.888C643.403 578.296 644.203 579 645.803 579H648.587C650.187 579 650.987 578.296 650.987 576.888ZM698.816 555.096H692.768V576.888C692.768 578.296 693.568 579 695.168 579H698.72V591H690.56C681.152 591 676.448 587.032 676.448 579.096V555.096H671.168V543.096H676.448V533.688H692.768V543.096H698.816V555.096ZM716.742 543.096H728.934C733.798 543.096 737.286 544.12 739.398 546.168C741.51 548.216 742.566 551.16 742.566 555V579.096C742.566 582.936 741.51 585.88 739.398 587.928C737.286 589.976 733.798 591 728.934 591H716.742C711.878 591 708.39 589.976 706.278 587.928C704.166 585.88 703.11 582.936 703.11 579.096V555C703.11 551.16 704.166 548.216 706.278 546.168C708.39 544.12 711.878 543.096 716.742 543.096ZM726.534 577.56V556.536C726.534 555.128 725.734 554.424 724.134 554.424H721.542C719.942 554.424 719.142 555.128 719.142 556.536V577.56C719.142 578.968 719.942 579.672 721.542 579.672H724.134C725.734 579.672 726.534 578.968 726.534 577.56ZM776.209 542.616H777.649V556.824H772.177C768.145 556.824 766.129 559 766.129 563.352V591H749.809V543.096H765.841V550.488C766.353 548.056 767.505 546.136 769.297 544.728C771.089 543.32 773.393 542.616 776.209 542.616ZM795.117 543.096H806.829C816.237 543.096 820.941 547.064 820.941 555V571.32H796.461V577.656C796.461 579.064 797.261 579.768 798.861 579.768H803.085C804.685 579.768 805.485 579 805.485 577.464V574.776H820.941V579.096C820.941 587.032 816.237 591 806.829 591H795.117C785.709 591 781.005 587.032 781.005 579.096V555C781.005 547.064 785.709 543.096 795.117 543.096ZM796.461 562.488H805.485V556.44C805.485 555.032 804.685 554.328 803.085 554.328H798.861C797.261 554.328 796.461 555.032 796.461 556.44V562.488Z" fill="#232323"/>
<path fill-rule="evenodd" clip-rule="evenodd" d="M332.647 50.0144C332.679 50.1323 332.696 50.2539 332.696 50.3761V69.3661C332.696 69.6099 332.631 69.8493 332.508 70.0602C332.385 70.2711 332.207 70.446 331.994 70.5673L315.915 79.7438V97.9325C315.915 98.4275 315.65 98.8844 315.217 99.1336L281.653 118.286C281.576 118.33 281.493 118.357 281.409 118.387C281.377 118.397 281.348 118.416 281.315 118.425C281.08 118.486 280.833 118.486 280.599 118.425C280.56 118.414 280.525 118.394 280.489 118.38C280.412 118.352 280.332 118.328 280.258 118.286L246.702 99.1336C246.489 99.0122 246.312 98.8373 246.188 98.6264C246.065 98.4155 246 98.1762 246 97.9325V40.9625C246 40.8379 246.017 40.7167 246.049 40.599C246.059 40.5592 246.084 40.5229 246.098 40.483C246.124 40.4104 246.148 40.3359 246.187 40.2684C246.213 40.2234 246.251 40.1871 246.283 40.1455C246.323 40.0902 246.36 40.033 246.407 39.9846C246.447 39.9448 246.499 39.9154 246.545 39.8807C246.595 39.8392 246.641 39.7942 246.698 39.7613H246.7L263.479 30.185C263.692 30.0638 263.932 30 264.178 30C264.423 30 264.664 30.0638 264.876 30.185L281.655 39.7613H281.659C281.714 39.7959 281.762 39.8392 281.812 39.879C281.858 39.9136 281.908 39.9448 281.948 39.9829C281.997 40.033 282.032 40.0902 282.074 40.1455C282.104 40.1871 282.144 40.2234 282.168 40.2684C282.209 40.3377 282.231 40.4104 282.259 40.483C282.273 40.5229 282.298 40.5592 282.308 40.6007C282.34 40.7187 282.357 40.8403 282.357 40.9625V76.5454L296.339 68.5648V50.3744C296.339 50.2532 296.356 50.1304 296.388 50.0144C296.4 49.9729 296.423 49.9365 296.437 49.8967C296.465 49.824 296.489 49.7496 296.527 49.6821C296.554 49.6371 296.592 49.6007 296.622 49.5592C296.664 49.5038 296.699 49.4467 296.747 49.3982C296.788 49.3584 296.838 49.329 296.884 49.2944C296.936 49.2529 296.981 49.2079 297.037 49.175H297.039L313.82 39.5986C314.032 39.4773 314.273 39.4134 314.518 39.4134C314.763 39.4134 315.004 39.4773 315.217 39.5986L331.996 49.175C332.055 49.2096 332.1 49.2529 332.153 49.2927C332.197 49.3273 332.247 49.3584 332.287 49.3965C332.336 49.4467 332.371 49.5038 332.413 49.5592C332.444 49.6007 332.483 49.6371 332.507 49.6821C332.547 49.7496 332.57 49.824 332.598 49.8967C332.614 49.9365 332.637 49.9729 332.647 50.0144V50.0144ZM329.899 68.5648V52.7732L324.027 56.124L315.915 60.7538V76.5454L329.901 68.5648H329.899ZM313.12 97.1311V81.3292L305.141 85.8465L282.355 98.7373V114.688L313.12 97.1311ZM248.797 43.3596V97.1311L279.558 114.686V98.739L263.488 89.7234L263.483 89.72L263.476 89.7165C263.422 89.6854 263.376 89.6404 263.326 89.6023C263.282 89.5677 263.231 89.54 263.193 89.5019L263.189 89.4967C263.144 89.4534 263.113 89.3998 263.074 89.3513C263.039 89.3046 262.997 89.2648 262.969 89.2163L262.968 89.2111C262.936 89.1592 262.917 89.0969 262.894 89.038C262.872 88.9861 262.842 88.9377 262.828 88.8823V88.8805C262.81 88.8148 262.807 88.7455 262.8 88.678C262.793 88.6261 262.779 88.5742 262.779 88.5223V88.5188V51.3402L254.669 46.7086L248.797 43.3613V43.3596ZM264.179 32.9854L250.199 40.9625L264.176 48.9396L278.154 40.9607L264.176 32.9854H264.179ZM271.45 82.7692L279.56 78.1411V43.3596L273.688 46.7104L265.576 51.3402V86.1217L271.45 82.7692ZM314.518 42.399L300.54 50.3761L314.518 58.3532L328.495 50.3744L314.518 42.399V42.399ZM313.12 60.7538L305.008 56.124L299.136 52.7732V68.5648L307.246 73.1929L313.12 76.5454V60.7538ZM280.955 96.3402L301.458 84.7371L311.707 78.939L297.739 70.9671L281.657 80.1454L266.999 88.5102L280.955 96.3402V96.3402Z" fill="#FF2D20"/>
<g clip-path="url(#clip0_914_72)">
<path d="M35 45.6646C35 37.0132 42.0068 30 50.6501 30H201.744V73.5759H35V45.6646Z" fill="#F3F4F7"/>
<path d="M79.1525 44.3774H65.5671C64.3774 44.4016 63.3696 44.6568 62.5441 45.1429C61.7428 45.6047 61.3421 46.5039 61.3421 47.8406C61.3421 48.8614 61.6821 49.5905 62.362 50.028C63.0661 50.4655 63.8794 50.6842 64.8022 50.6842L72.0866 50.6477C72.3538 50.672 72.6329 50.6842 72.9243 50.6842C73.2157 50.6842 73.5071 50.6964 73.7984 50.7206C74.6484 50.7693 75.4861 50.9151 76.3116 51.1581C77.137 51.3768 77.8655 51.79 78.4969 52.3976C79.0796 52.9323 79.5167 53.5764 79.8081 54.3298C80.0994 55.0832 80.2815 55.8609 80.3544 56.6629C80.3786 56.906 80.3908 57.149 80.3908 57.392C80.415 57.6108 80.4272 57.8417 80.4272 58.0847C80.3786 61.1228 79.5409 63.1885 77.9141 64.2822C76.2874 65.3516 74.0776 65.8862 71.2853 65.8862H56.6437V61.2199H70.4112C71.6254 61.2441 72.6694 61.0499 73.5435 60.6366C74.4418 60.2233 74.806 59.2877 74.6362 57.8295C74.5146 56.6872 74.0898 55.9824 73.3614 55.7151C72.6329 55.4477 71.7711 55.3019 70.7754 55.2776L64.2923 55.2412C61.5971 55.2654 59.4604 54.7308 57.8821 53.6371C56.3281 52.5191 55.5632 50.5141 55.5875 47.6219C55.636 44.5839 56.4738 42.5181 58.1006 41.4244C59.7517 40.3065 61.9735 39.7475 64.7658 39.7475L79.1525 39.711V44.3774ZM90.2569 44.3044H81.8434V39.7475H104.425V44.3044H95.9387V65.8862H90.2569V44.3044ZM111.824 48.8614C111.654 49.5176 111.532 50.186 111.46 50.8665C111.387 51.5227 111.35 52.1789 111.35 52.8351C111.35 53.5156 111.387 54.1961 111.46 54.8766C111.557 55.5328 111.678 56.1768 111.824 56.8087C112.091 57.9267 112.528 58.899 113.135 59.7252C113.766 60.5514 114.641 61.1592 115.757 61.548C116.17 61.6938 116.607 61.8032 117.069 61.8761C117.53 61.949 117.991 61.9855 118.453 61.9855C118.914 61.9855 119.375 61.949 119.837 61.8761C120.298 61.8032 120.735 61.6938 121.148 61.548C122.265 61.1592 123.139 60.5514 123.77 59.7252C124.402 58.899 124.839 57.9267 125.081 56.8087C125.227 56.1768 125.336 55.5328 125.409 54.8766C125.506 54.1961 125.555 53.5156 125.555 52.8351C125.555 52.1789 125.506 51.5227 125.409 50.8665C125.336 50.186 125.227 49.5298 125.081 48.8979C124.839 47.7799 124.402 46.8077 123.77 45.9814C123.139 45.1308 122.265 44.5232 121.148 44.1586C120.735 44.0128 120.298 43.9034 119.837 43.8305C119.375 43.7576 118.914 43.7212 118.453 43.7212C117.991 43.7212 117.53 43.7576 117.069 43.8305C116.607 43.9034 116.17 44.0128 115.757 44.1586C114.641 44.5475 113.778 45.1551 113.171 45.9814C112.564 46.8077 112.115 47.7799 111.824 48.8979V48.8614ZM106.142 47.0022C106.773 45.0822 107.696 43.5267 108.91 42.3358C110.148 41.1206 111.763 40.2579 113.754 39.7475C114.483 39.5774 115.235 39.4437 116.012 39.3465C116.789 39.2493 117.566 39.2006 118.343 39.2006C119.169 39.1764 120.006 39.2128 120.856 39.31C121.706 39.4072 122.52 39.5652 123.297 39.7839C125.239 40.27 126.83 41.1206 128.068 42.3358C129.306 43.551 130.217 45.1186 130.8 47.0386C131.042 47.9136 131.224 48.8371 131.346 49.8093C131.492 50.7814 131.564 51.7536 131.564 52.7257C131.564 53.7708 131.504 54.7915 131.382 55.788C131.261 56.7845 131.067 57.7323 130.8 58.6315C130.217 60.6001 129.294 62.1919 128.032 63.4072C126.769 64.598 125.142 65.4245 123.151 65.8862C122.374 66.0807 121.573 66.2143 120.747 66.2872C119.922 66.3843 119.084 66.433 118.234 66.433C117.481 66.433 116.729 66.3843 115.976 66.2872C115.223 66.1901 114.483 66.0562 113.754 65.8862C111.787 65.4245 110.173 64.598 108.91 63.4072C107.648 62.1919 106.725 60.6001 106.142 58.6315C105.899 57.7809 105.705 56.8574 105.559 55.8609C105.438 54.8644 105.377 53.8558 105.377 52.8351C105.377 51.8143 105.438 50.8057 105.559 49.8093C105.681 48.7885 105.875 47.8649 106.142 47.0386V47.0022ZM135.259 39.711H148.808C149.075 39.7353 149.33 39.7475 149.573 39.7475C149.84 39.7475 150.107 39.7596 150.374 39.7839C151.37 39.8326 152.341 39.9905 153.288 40.2579C154.259 40.5252 155.109 41.0234 155.837 41.7525C156.493 42.3845 156.979 43.1257 157.294 43.9763C157.634 44.827 157.841 45.7019 157.913 46.6012C157.913 46.7713 157.913 46.9414 157.913 47.1115C157.938 47.2816 157.95 47.4518 157.95 47.6219C157.974 49.4447 157.549 51.0245 156.675 52.3612C155.825 53.6736 154.49 54.5485 152.669 54.986L159.188 65.8862H152.997L147.242 55.6057H140.759V65.8862H135.259V39.711ZM147.497 44.3774H140.759V50.9758H147.497C147.545 51.0001 147.594 51.0123 147.643 51.0123C147.691 51.0123 147.74 51.0123 147.788 51.0123C148.954 51.0123 150.01 50.8422 150.957 50.5019C151.928 50.1374 152.402 49.2017 152.377 47.6948C152.377 46.1394 151.867 45.2037 150.848 44.8877C149.852 44.5718 148.735 44.4138 147.497 44.4138V44.3774ZM173.356 44.268C171.341 44.2923 169.836 44.8391 168.84 45.9085C167.844 46.9535 167.286 48.4482 167.165 50.3925L182.389 50.3561V54.9131H167.128C167.128 55.8366 167.225 56.7237 167.42 57.5743C167.638 58.425 168.063 59.2026 168.694 59.9075C169.253 60.5637 169.909 60.9769 170.661 61.147C171.438 61.2928 172.227 61.3657 173.029 61.3657C173.077 61.3657 173.126 61.3657 173.174 61.3657C173.247 61.3657 173.308 61.3657 173.356 61.3657L182.389 61.3293V65.8862H173.101C171.62 65.8862 170.188 65.7526 168.804 65.4852C167.444 65.2178 166.157 64.598 164.943 63.626C163.486 62.4352 162.466 60.9889 161.883 59.2877C161.301 57.5622 160.985 55.8002 160.937 54.0017C160.912 53.6128 160.9 53.2361 160.9 52.8715C160.924 52.507 160.949 52.1424 160.973 51.7779C161.24 47.6462 162.357 44.6083 164.324 42.6639C166.315 40.7196 169.289 39.7475 173.247 39.7475L182.389 39.711V44.268H173.356Z" fill="#EB4433"/>
<path d="M104.145 73.5762H201.744V101.488C201.744 110.139 194.738 117.152 186.094 117.152H104.145V73.5762Z" fill="#4F5B93"/>
<path d="M128.673 87.953H122.299V95.6816H129C130.336 95.6816 131.489 95.4264 132.461 94.916C133.432 94.3814 133.917 93.3606 133.917 91.8537C133.966 90.1767 133.444 89.1195 132.351 88.6821C131.283 88.2204 130.057 87.9894 128.673 87.9894V87.953ZM116.799 83.2866H128.745C128.77 83.3108 128.794 83.3231 128.818 83.3231C128.867 83.3231 128.903 83.3231 128.928 83.3231C129.389 83.3231 129.85 83.3231 130.312 83.3231C130.773 83.3231 131.234 83.3473 131.696 83.396C132.521 83.4447 133.335 83.566 134.136 83.7605C134.961 83.9306 135.726 84.2222 136.43 84.6355C137.718 85.3888 138.628 86.4218 139.162 87.7342C139.721 89.0466 140.012 90.4197 140.036 91.8537C140.06 93.1661 139.83 94.4298 139.344 95.6451C138.883 96.8604 138.106 97.8689 137.013 98.6709C136.09 99.3271 135.083 99.7646 133.99 99.9833C132.922 100.178 131.829 100.299 130.712 100.348C130.421 100.348 130.13 100.348 129.838 100.348C129.547 100.348 129.255 100.348 128.964 100.348L122.299 100.311V109.462H116.799V83.2866ZM149.331 83.2866V93.8952H159.42V83.2866H164.919V109.462H159.42V98.5251H149.331V109.462H143.831V83.2866H149.331ZM182.167 87.953H175.794V95.6816H182.495C183.831 95.6816 184.984 95.4264 185.955 94.916C186.926 94.3814 187.412 93.3606 187.412 91.8537C187.461 90.1767 186.939 89.1195 185.846 88.6821C184.777 88.2204 183.551 87.9894 182.167 87.9894V87.953ZM170.294 83.2866H182.24C182.264 83.3108 182.289 83.3231 182.313 83.3231C182.362 83.3231 182.398 83.3231 182.422 83.3231C182.884 83.3231 183.345 83.3231 183.806 83.3231C184.268 83.3231 184.729 83.3473 185.19 83.396C186.016 83.4447 186.829 83.566 187.631 83.7605C188.456 83.9306 189.221 84.2222 189.925 84.6355C191.212 85.3888 192.123 86.4218 192.657 87.7342C193.215 89.0466 193.507 90.4197 193.531 91.8537C193.555 93.1661 193.325 94.4298 192.839 95.6451C192.378 96.8604 191.601 97.8689 190.508 98.6709C189.585 99.3271 188.578 99.7646 187.485 99.9833C186.416 100.178 185.324 100.299 184.207 100.348C183.916 100.348 183.624 100.348 183.333 100.348C183.041 100.348 182.75 100.348 182.459 100.348L175.794 100.311V109.462H170.294V83.2866Z" fill="white"/>
</g>
<g clip-path="url(#clip1_914_72)">
<path d="M742.29 442.12H338.37C336.365 442.12 334.74 443.745 334.74 445.75C334.74 447.755 336.365 449.38 338.37 449.38H742.29C744.295 449.38 745.92 447.755 745.92 445.75C745.92 443.745 744.295 442.12 742.29 442.12Z" fill="#E1E4E5"/>
<path d="M519.05 442.372C519.05 442.372 482.567 395.629 467.32 388.466C451.07 380.834 465.159 407.279 465.159 407.279C465.159 407.279 430.416 373.216 422.254 381.721C414.092 390.226 422.808 398.185 422.808 398.185C422.808 398.185 393.715 392.789 389.471 403.669C382.952 420.384 430.805 428.696 430.805 428.696C430.805 428.696 407.881 423.674 412.468 434.023C419.383 449.626 519.05 442.372 519.05 442.372Z" fill="#E1E4E5"/>
<path d="M576.756 421.816C576.756 421.816 564.31 364.885 551.153 356.95C537.994 349.013 523.102 365.094 523.102 365.094C523.102 365.094 502.381 350.389 492.609 353.582C482.837 356.775 491.503 367.775 491.503 367.775C491.503 367.775 458.14 354.619 454.444 361.146C447.568 373.308 482.971 389.45 482.971 389.45C482.971 389.45 467.413 386.143 467.528 394.419C467.7 406.899 503.311 405.66 503.311 405.66C503.311 405.66 489.6 407.348 493.673 414.791C500.98 428.149 576.756 421.816 576.756 421.816ZM362.158 207.6C362.158 207.6 375.42 204.041 379.993 234.447C384.565 264.853 384.598 281.508 384.598 281.508C384.598 281.508 386.277 288.119 391.208 285.804C396.139 283.489 404.625 275.106 410.38 279.042C416.346 283.126 416.059 291.207 411.196 301.605C406.334 312.004 396.521 335.157 395.64 337.261C394.772 339.316 394.951 342.842 398.562 341.799C402.174 340.757 425.338 327.581 430.928 338.942C436.53 350.307 418.221 377.041 416.278 379.998C414.335 382.954 414.5 384.559 415.774 385.878C417.046 387.197 424.42 382.034 431.157 378.55C437.895 375.067 446.326 372.222 449.005 379.048C451.685 385.876 445.721 408.526 412.613 437.496L396.393 449.915L377.317 442.358C337.481 423.697 325.471 403.582 326.157 396.282C326.844 388.983 335.729 389.38 343.173 390.859C350.617 392.338 359.131 395.254 359.988 393.632C360.846 392.012 360.569 390.43 357.882 388.123C355.194 385.817 330.199 365.21 332.433 352.732C334.662 340.266 360.57 346.507 364.329 346.496C368.083 346.497 367.27 343.067 365.872 341.33C364.442 339.559 348.587 320.026 341.04 311.379C333.49 302.746 330.977 295.052 335.578 289.475C340.009 284.091 350.496 289.81 355.871 290.669C361.248 291.527 361.028 284.699 361.028 284.699C361.028 284.699 356.434 268.685 352.411 238.202C348.388 207.719 362.453 207.534 362.453 207.534" fill="#E1E4E5"/>
<path d="M396.732 445.643C393.698 423.265 389.239 392.387 384.187 358.296C379.143 324.221 374.613 293.363 371.441 271.002C369.869 259.844 368.603 250.805 367.72 244.526C367.283 241.421 366.939 239.002 366.701 237.325C366.584 236.527 366.487 235.905 366.423 235.452C366.349 235.036 366.303 234.812 366.303 234.812C366.303 234.812 366.312 235.026 366.355 235.46C366.406 235.91 366.476 236.537 366.565 237.341C366.775 239.023 367.078 241.445 367.46 244.562C368.24 250.827 369.435 259.887 370.96 271.071C373.994 293.449 378.456 324.315 383.497 358.402C388.537 392.49 393.079 423.351 396.238 445.709" fill="white"/>
<path d="M398.976 291.257C398.93 291.231 398.61 291.635 398.033 292.406C397.46 293.164 396.67 294.288 395.714 295.685C393.798 298.491 391.251 302.422 388.522 306.834C385.865 311.173 383.451 315.101 381.594 318.134C380.759 319.47 380.059 320.605 379.476 321.546C378.97 322.349 378.715 322.81 378.76 322.835C378.806 322.86 379.138 322.461 379.712 321.702C380.273 320.94 381.064 319.817 382.011 318.404C383.904 315.579 386.397 311.607 389.11 307.203L396.115 295.964C396.949 294.628 397.662 293.496 398.245 292.555C398.754 291.739 399.01 291.279 398.976 291.257ZM376.872 322.581C376.979 322.424 369.097 316.808 359.257 310.06C349.42 303.299 341.347 297.949 341.239 298.105C341.131 298.262 349.017 303.865 358.854 310.626C368.703 317.39 376.764 322.737 376.872 322.581ZM386.976 374.579C386.989 374.53 386.484 374.342 385.579 374.02C384.522 373.671 383.222 373.243 381.694 372.727C378.416 371.638 373.881 370.105 368.947 368.241C364.009 366.389 359.594 364.559 356.398 363.213C354.912 362.59 353.654 362.055 352.62 361.619C351.729 361.247 351.22 361.072 351.198 361.105C351.172 361.152 351.645 361.41 352.502 361.864C353.362 362.307 354.621 362.935 356.198 363.662C359.337 365.124 363.744 367.032 368.694 368.888C373.641 370.755 378.211 372.205 381.543 373.19C383.211 373.677 384.568 374.04 385.497 374.276C386.437 374.515 386.963 374.629 386.976 374.579ZM413.198 350.639C413.167 350.605 412.772 350.895 412.066 351.46C411.091 352.263 410.124 353.075 409.165 353.896C406.003 356.61 402.866 359.352 399.755 362.123C396.11 365.364 392.828 368.333 390.474 370.505C389.542 371.361 388.622 372.229 387.714 373.111C387.072 373.732 386.734 374.104 386.764 374.138C386.794 374.173 387.19 373.882 387.897 373.318C388.59 372.751 389.58 371.918 390.797 370.882C393.233 368.798 396.562 365.896 400.207 362.654C403.852 359.413 407.134 356.445 409.475 354.269C410.407 353.414 411.328 352.546 412.235 351.664C412.89 351.046 413.241 350.677 413.198 350.639ZM427.949 395.408C427.918 395.373 427.407 395.752 426.512 396.478C425.526 397.297 424.269 398.335 422.782 399.59C418.711 403.047 414.665 406.533 410.645 410.049C405.932 414.167 401.687 417.922 398.639 420.662C397.44 421.754 396.244 422.848 395.049 423.944C394.218 424.726 393.764 425.186 393.794 425.221C393.825 425.256 394.336 424.877 395.231 424.151C396.218 423.332 397.474 422.293 398.961 421.039C403.032 417.582 407.078 414.096 411.098 410.58C415.811 406.461 420.056 402.707 423.104 399.967C424.539 398.659 425.748 397.555 426.695 396.685C427.538 395.906 427.979 395.443 427.949 395.408ZM394.417 424.277C394.431 424.228 393.8 423.967 392.661 423.529C391.386 423.056 389.752 422.446 387.79 421.722C383.68 420.184 377.997 418.053 371.801 415.521C365.601 412.999 360.037 410.57 356.022 408.78C354.436 408.084 352.852 407.382 351.271 406.674C350.145 406.187 349.514 405.926 349.489 405.972C349.463 406.018 350.062 406.35 351.152 406.92C352.242 407.49 353.84 408.288 355.822 409.229C360.991 411.694 366.231 414.006 371.536 416.163C376.84 418.325 382.207 420.331 387.628 422.181C389.713 422.885 391.404 423.431 392.579 423.785C393.741 424.136 394.395 424.311 394.417 424.277Z" fill="white"/>
<path d="M648.636 254.547C648.636 254.547 638.192 251.744 634.592 275.686C630.992 299.629 630.966 312.743 630.966 312.743C630.966 312.743 629.644 317.949 625.761 316.126C621.879 314.303 615.196 307.702 610.664 310.801C605.966 314.017 606.193 320.38 610.022 328.568C613.85 336.756 621.577 354.987 622.272 356.645C622.955 358.262 622.813 361.038 619.97 360.218C617.127 359.398 598.886 349.022 594.485 357.968C590.074 366.917 604.491 387.968 606.02 390.296C607.55 392.625 607.42 393.888 606.418 394.927C605.416 395.966 599.61 391.899 594.304 389.156C588.999 386.413 582.36 384.174 580.25 389.549C578.14 394.924 582.836 412.76 608.907 435.571L621.678 445.351L636.7 439.399C668.067 424.707 677.524 408.867 676.983 403.119C676.442 397.371 669.447 397.684 663.585 398.848C657.724 400.013 651.019 402.309 650.344 401.033C649.669 399.756 649.887 398.511 652.003 396.694C654.119 394.878 673.8 378.652 672.042 368.826C670.287 359.011 649.886 363.925 646.927 363.917C643.97 363.917 644.61 361.216 645.712 359.848C646.837 358.454 659.322 343.073 665.265 336.265C671.209 329.466 673.189 323.408 669.565 319.017C666.076 314.777 657.819 319.28 653.586 319.956C649.353 320.632 649.526 315.255 649.526 315.255C649.526 315.255 653.143 302.646 656.311 278.643C659.478 254.64 648.404 254.495 648.404 254.495" fill="#E1E4E5"/>
<path d="M621.412 441.987C623.801 424.366 627.312 400.052 631.29 373.208C635.262 346.376 638.83 322.079 641.326 304.47C642.564 295.685 643.562 288.567 644.257 283.623C644.601 281.178 644.871 279.273 645.059 277.952C645.15 277.324 645.228 276.835 645.278 276.478C645.336 276.15 645.372 275.974 645.372 275.974C645.372 275.974 645.365 276.142 645.332 276.484C645.291 276.838 645.236 277.332 645.166 277.966C645.001 279.29 644.762 281.197 644.462 283.651C643.847 288.584 642.906 295.718 641.705 304.525C639.316 322.146 635.802 346.45 631.834 373.291C627.865 400.133 624.288 424.433 621.8 442.039" fill="white"/>
<path d="M619.646 320.42C619.682 320.399 619.933 320.718 620.387 321.325C620.839 321.922 621.461 322.806 622.214 323.907C623.722 326.116 625.728 329.212 627.877 332.685C629.969 336.102 631.87 339.195 633.333 341.583C633.989 342.635 634.541 343.529 635 344.27C635.399 344.903 635.6 345.265 635.564 345.285C635.527 345.305 635.266 344.99 634.814 344.392C634.372 343.792 633.75 342.908 633.005 341.796C631.513 339.572 629.551 336.443 627.414 332.976L621.898 324.126C621.242 323.074 620.68 322.183 620.221 321.442C619.82 320.8 619.619 320.437 619.646 320.42ZM637.05 345.085C636.965 344.962 643.173 340.54 650.921 335.226C658.667 329.902 665.023 325.689 665.108 325.813C665.194 325.936 658.984 330.348 651.238 335.672C643.483 340.998 637.136 345.208 637.05 345.085ZM629.094 386.03C629.084 385.991 629.482 385.842 630.194 385.589C631.026 385.314 632.05 384.977 633.254 384.572C635.834 383.713 639.405 382.507 643.29 381.039C647.179 379.58 650.655 378.139 653.172 377.08C654.342 376.589 655.332 376.167 656.146 375.824C656.848 375.532 657.248 375.393 657.266 375.42C657.286 375.457 656.914 375.66 656.239 376.018C655.279 376.51 654.309 376.982 653.329 377.433C650.102 378.928 646.82 380.3 643.489 381.548C640.159 382.799 636.784 383.929 633.372 384.936C632.058 385.319 630.99 385.605 630.258 385.79C629.518 385.978 629.105 386.069 629.094 386.03ZM608.446 367.179C608.47 367.152 608.781 367.381 609.338 367.825C609.884 368.272 610.664 368.927 611.621 369.743C614.111 371.88 616.582 374.039 619.032 376.222C621.487 378.4 623.922 380.6 626.339 382.822C627.073 383.495 627.798 384.179 628.513 384.873C629.019 385.363 629.285 385.656 629.26 385.683C629.237 385.71 628.925 385.481 628.369 385.037C627.822 384.59 627.043 383.934 626.085 383.119C623.596 380.982 621.126 378.822 618.675 376.64C615.805 374.088 613.221 371.751 611.378 370.037C610.644 369.364 609.919 368.68 609.204 367.985C608.688 367.499 608.412 367.209 608.446 367.179ZM596.831 402.431C596.855 402.403 597.258 402.701 597.963 403.272C598.739 403.918 599.729 404.736 600.899 405.724C603.364 407.812 606.745 410.716 610.456 413.959C613.626 416.724 616.777 419.509 619.91 422.316C620.854 423.176 621.796 424.037 622.737 424.901C623.392 425.516 623.749 425.879 623.725 425.906C623.701 425.933 623.299 425.635 622.594 425.064C621.817 424.419 620.827 423.601 619.657 422.613C616.451 419.891 613.265 417.146 610.1 414.377C606.93 411.613 603.779 408.827 600.646 406.021C599.516 404.991 598.565 404.121 597.819 403.436C597.155 402.823 596.807 402.458 596.831 402.431ZM623.235 425.163C623.224 425.124 623.721 424.918 624.617 424.574C625.621 424.201 626.908 423.72 628.453 423.151C631.689 421.94 636.164 420.262 641.043 418.268C645.214 416.567 649.356 414.797 653.468 412.96C654.717 412.412 655.964 411.859 657.209 411.302C658.095 410.918 658.592 410.712 658.612 410.749C658.632 410.785 658.161 411.046 657.303 411.495C656.444 411.944 655.186 412.572 653.625 413.314C649.555 415.254 645.429 417.075 641.252 418.774C637.075 420.476 632.85 422.056 628.581 423.512C626.939 424.066 625.607 424.497 624.682 424.775C623.767 425.052 623.252 425.19 623.235 425.163Z" fill="white"/>
<path d="M613.302 195.277C612.992 195.166 612.679 195.065 612.363 194.975C612.257 194.945 612.154 194.913 612.05 194.886C611.938 194.858 611.826 194.831 611.715 194.804C611.601 194.776 611.487 194.75 611.373 194.724C611.265 194.7 611.157 194.68 611.047 194.658C610.82 194.615 610.593 194.577 610.365 194.544C609.981 194.491 609.595 194.452 609.209 194.427C609.128 194.422 609.047 194.414 608.966 194.411C608.728 194.4 608.49 194.393 608.25 194.393H498.202C497.198 194.391 496.196 194.492 495.212 194.695C488.932 195.981 484.099 201.246 483.44 207.746C483.389 208.252 483.364 208.759 483.364 209.268V434.73C483.364 441.168 487.443 446.649 493.154 448.721C493.18 448.73 493.205 448.738 493.23 448.746C493.514 448.846 493.801 448.939 494.091 449.021C494.196 449.051 494.3 449.083 494.406 449.11C494.517 449.139 494.629 449.166 494.74 449.193C494.961 449.248 495.184 449.296 495.408 449.337C495.531 449.361 495.653 449.383 495.776 449.403L496.089 449.452C496.221 449.471 496.355 449.486 496.49 449.503C496.587 449.513 496.684 449.525 496.783 449.535C496.936 449.548 497.09 449.56 497.244 449.57C497.326 449.574 497.407 449.582 497.488 449.585C497.725 449.597 497.964 449.603 498.204 449.603H608.253C608.76 449.603 609.266 449.578 609.771 449.527C616.754 448.816 622.307 443.249 623.017 436.248C623.068 435.748 623.093 435.24 623.093 434.727V209.268C623.09 202.829 619.011 197.349 613.302 195.277Z" fill="#EB4433"/>
<path fill-rule="evenodd" clip-rule="evenodd" d="M515.35 345.938C515.173 346.031 514.974 346.072 514.774 346.057C514.575 346.042 514.384 345.971 514.222 345.853C514.061 345.735 513.936 345.574 513.862 345.388C513.788 345.202 513.767 345 513.802 344.803L514.379 341.496L511.949 339.168C511.804 339.029 511.701 338.852 511.651 338.657C511.602 338.462 511.608 338.257 511.67 338.066C511.731 337.875 511.845 337.704 511.999 337.575C512.153 337.446 512.34 337.362 512.539 337.334L515.912 336.852L517.435 333.814C517.523 333.636 517.66 333.485 517.829 333.38C517.998 333.275 518.194 333.219 518.393 333.219C518.593 333.219 518.788 333.275 518.958 333.38C519.127 333.485 519.264 333.636 519.352 333.814L520.875 336.852L524.247 337.334C524.446 337.362 524.634 337.445 524.788 337.575C524.942 337.704 525.056 337.874 525.118 338.066C525.179 338.257 525.186 338.462 525.136 338.657C525.087 338.852 524.983 339.029 524.837 339.168L522.408 341.496L522.985 344.803C523.02 345 522.999 345.203 522.925 345.389C522.85 345.574 522.726 345.735 522.564 345.854C522.403 345.972 522.212 346.043 522.012 346.058C521.813 346.073 521.613 346.031 521.436 345.939L518.393 344.366L515.35 345.938ZM532.51 345.938C532.333 346.031 532.134 346.072 531.934 346.057C531.735 346.042 531.544 345.971 531.382 345.853C531.221 345.735 531.096 345.574 531.022 345.388C530.948 345.202 530.927 345 530.962 344.803L531.539 341.496L529.109 339.168C528.964 339.029 528.861 338.852 528.811 338.657C528.762 338.462 528.768 338.257 528.83 338.066C528.891 337.875 529.005 337.704 529.159 337.575C529.313 337.446 529.5 337.362 529.699 337.334L533.072 336.852L534.595 333.814C534.683 333.636 534.82 333.485 534.989 333.38C535.158 333.275 535.354 333.219 535.553 333.219C535.753 333.219 535.948 333.275 536.118 333.38C536.287 333.485 536.424 333.636 536.512 333.814L538.035 336.852L541.407 337.334C541.606 337.362 541.794 337.445 541.948 337.575C542.102 337.704 542.216 337.874 542.278 338.066C542.339 338.257 542.346 338.462 542.296 338.657C542.247 338.852 542.143 339.029 541.997 339.168L539.568 341.496L540.145 344.803C540.18 345 540.159 345.203 540.085 345.389C540.01 345.574 539.886 345.735 539.724 345.854C539.563 345.972 539.372 346.043 539.172 346.058C538.973 346.073 538.773 346.031 538.596 345.939L535.553 344.366L532.51 345.938ZM549.67 345.938C549.493 346.031 549.294 346.072 549.094 346.057C548.895 346.042 548.704 345.971 548.542 345.853C548.381 345.735 548.256 345.574 548.182 345.388C548.108 345.202 548.087 345 548.122 344.803L548.699 341.496L546.269 339.168C546.124 339.029 546.021 338.852 545.971 338.657C545.922 338.462 545.928 338.257 545.99 338.066C546.051 337.875 546.165 337.704 546.319 337.575C546.473 337.446 546.66 337.362 546.859 337.334L550.232 336.852L551.755 333.814C551.843 333.636 551.98 333.485 552.149 333.38C552.318 333.275 552.514 333.219 552.713 333.219C552.913 333.219 553.108 333.275 553.278 333.38C553.447 333.485 553.584 333.636 553.672 333.814L555.195 336.852L558.567 337.334C558.766 337.362 558.954 337.445 559.108 337.575C559.262 337.704 559.376 337.874 559.438 338.066C559.499 338.257 559.506 338.462 559.456 338.657C559.407 338.852 559.303 339.029 559.157 339.168L556.728 341.496L557.305 344.803C557.34 345 557.319 345.203 557.245 345.389C557.17 345.574 557.046 345.735 556.884 345.854C556.723 345.972 556.532 346.043 556.332 346.058C556.133 346.073 555.933 346.031 555.756 345.939L552.713 344.366L549.67 345.938ZM567.49 345.938C567.313 346.031 567.114 346.072 566.914 346.057C566.715 346.042 566.524 345.971 566.362 345.853C566.201 345.735 566.076 345.574 566.002 345.388C565.928 345.202 565.907 345 565.942 344.803L566.519 341.496L564.089 339.168C563.944 339.029 563.841 338.852 563.791 338.657C563.742 338.462 563.748 338.257 563.81 338.066C563.871 337.875 563.985 337.704 564.139 337.575C564.293 337.446 564.48 337.362 564.679 337.334L568.052 336.852L569.575 333.814C569.663 333.636 569.8 333.485 569.969 333.38C570.138 333.275 570.334 333.219 570.533 333.219C570.733 333.219 570.928 333.275 571.098 333.38C571.267 333.485 571.404 333.636 571.492 333.814L573.015 336.852L576.387 337.334C576.586 337.362 576.774 337.445 576.928 337.575C577.082 337.704 577.196 337.874 577.258 338.066C577.319 338.257 577.326 338.462 577.276 338.657C577.227 338.852 577.123 339.029 576.977 339.168L574.548 341.496L575.125 344.803C575.16 345 575.139 345.203 575.065 345.389C574.99 345.574 574.866 345.735 574.704 345.854C574.543 345.972 574.352 346.043 574.152 346.058C573.953 346.073 573.753 346.031 573.576 345.939L570.533 344.366L567.49 345.938ZM585.31 345.938C585.133 346.031 584.934 346.072 584.734 346.057C584.535 346.042 584.344 345.971 584.182 345.853C584.021 345.735 583.896 345.574 583.822 345.388C583.748 345.202 583.727 345 583.762 344.803L584.339 341.496L581.909 339.168C581.764 339.029 581.661 338.852 581.611 338.657C581.562 338.462 581.568 338.257 581.63 338.066C581.691 337.875 581.805 337.704 581.959 337.575C582.113 337.446 582.3 337.362 582.499 337.334L585.872 336.852L587.395 333.814C587.483 333.636 587.62 333.485 587.789 333.38C587.958 333.275 588.154 333.219 588.353 333.219C588.553 333.219 588.748 333.275 588.918 333.38C589.087 333.485 589.224 333.636 589.312 333.814L590.835 336.852L594.207 337.334C594.406 337.362 594.594 337.445 594.748 337.575C594.902 337.704 595.016 337.874 595.078 338.066C595.139 338.257 595.146 338.462 595.096 338.657C595.047 338.852 594.943 339.029 594.797 339.168L592.368 341.496L592.945 344.803C592.98 345 592.959 345.203 592.885 345.389C592.81 345.574 592.686 345.735 592.524 345.854C592.363 345.972 592.172 346.043 591.972 346.058C591.773 346.073 591.573 346.031 591.396 345.939L588.353 344.366L585.31 345.938Z" fill="white"/>
<path d="M723.388 282.4C725.16 282.4 726.596 283.836 726.596 285.608C726.596 287.38 725.16 288.816 723.388 288.816C721.616 288.816 720.18 287.38 720.18 285.608C720.18 283.836 721.616 282.4 723.388 282.4Z" fill="#E1E4E5"/>
<path d="M342.568 349.09C344.34 349.09 345.777 350.526 345.777 352.298C345.777 354.07 344.34 355.506 342.568 355.506C340.796 355.506 339.36 354.07 339.36 352.298C339.36 350.526 340.796 349.09 342.568 349.09Z" fill="#E1E4E5"/>
<path d="M633.628 237.52C635.4 237.52 636.836 238.956 636.836 240.728C636.836 242.5 635.4 243.937 633.628 243.937C631.856 243.937 630.42 242.5 630.42 240.728C630.42 238.956 631.856 237.52 633.628 237.52Z" fill="#E1E4E5"/>
<path d="M673.03 295.681L668.04 290.69L673.03 285.7L678.021 290.69L673.03 295.681Z" stroke="#E1E4E5" stroke-width="4" stroke-linecap="round" stroke-linejoin="round"/>
<path fill-rule="evenodd" clip-rule="evenodd" d="M455.579 349.267H378.245C376.627 349.266 375.069 349.88 373.888 350.984C372.706 352.089 371.989 353.602 371.881 355.216L366.805 431.313C366.314 438.672 372.155 444.914 379.532 444.914H454.291C461.669 444.914 467.51 438.672 467.018 431.313L461.942 355.216C461.835 353.602 461.117 352.089 459.936 350.984C458.754 349.88 457.196 349.266 455.579 349.267Z" fill="#4F5B93" stroke="#4F5B93" stroke-width="13.417" stroke-linecap="round" stroke-linejoin="round"/>
<path fill-rule="evenodd" clip-rule="evenodd" d="M408.461 412.081C407.969 412.337 407.415 412.451 406.862 412.408C406.309 412.366 405.779 412.17 405.332 411.842C404.884 411.514 404.538 411.067 404.331 410.553C404.124 410.038 404.066 409.475 404.163 408.929L405.765 399.75L399.021 393.289C398.617 392.904 398.33 392.413 398.193 391.872C398.056 391.331 398.073 390.762 398.244 390.231C398.415 389.7 398.732 389.228 399.159 388.868C399.586 388.509 400.106 388.277 400.658 388.2L410.022 386.861L414.249 378.43C414.495 377.935 414.874 377.517 415.344 377.226C415.814 376.934 416.357 376.779 416.91 376.779C417.463 376.779 418.006 376.934 418.476 377.226C418.946 377.517 419.325 377.935 419.571 378.43L423.798 386.861L433.162 388.2C433.714 388.277 434.234 388.509 434.661 388.868C435.088 389.228 435.405 389.7 435.576 390.231C435.746 390.762 435.764 391.331 435.627 391.872C435.49 392.413 435.203 392.904 434.799 393.289L428.055 399.75L429.657 408.931C429.755 409.477 429.697 410.04 429.491 410.556C429.284 411.071 428.938 411.518 428.49 411.846C428.042 412.174 427.512 412.37 426.958 412.412C426.405 412.454 425.85 412.34 425.359 412.083L416.91 407.718L408.461 412.081Z" fill="white"/>
<path d="M436.046 360.933V335.427C436.046 324.861 427.483 316.297 416.917 316.297H416.91C406.344 316.297 397.781 324.861 397.781 335.427V360.933" stroke="#4F5B93" stroke-width="13.417" stroke-linecap="round" stroke-linejoin="round"/>
<path fill-rule="evenodd" clip-rule="evenodd" d="M461.569 266.027C461.438 266.095 461.291 266.125 461.145 266.114C460.998 266.103 460.857 266.051 460.738 265.964C460.62 265.877 460.528 265.758 460.473 265.622C460.418 265.485 460.403 265.336 460.428 265.191L460.853 262.756L459.064 261.041C458.957 260.938 458.882 260.808 458.845 260.665C458.809 260.521 458.814 260.37 458.859 260.23C458.904 260.089 458.988 259.963 459.101 259.868C459.214 259.773 459.352 259.711 459.499 259.69L461.983 259.335L463.104 257.098C463.169 256.966 463.27 256.856 463.395 256.778C463.519 256.701 463.663 256.66 463.81 256.66C463.957 256.66 464.101 256.701 464.226 256.778C464.351 256.856 464.451 256.966 464.516 257.098L465.638 259.335L468.122 259.69C468.269 259.711 468.406 259.773 468.519 259.868C468.632 259.963 468.716 260.089 468.761 260.23C468.807 260.37 468.811 260.521 468.775 260.665C468.739 260.808 468.663 260.938 468.556 261.041L466.767 262.756L467.192 265.192C467.218 265.337 467.203 265.486 467.149 265.623C467.094 265.76 467.002 265.879 466.883 265.966C466.764 266.053 466.623 266.105 466.476 266.116C466.329 266.127 466.182 266.096 466.052 266.028L463.81 264.87L461.569 266.027ZM641.41 275.318C641.233 275.411 641.034 275.452 640.834 275.437C640.635 275.422 640.444 275.351 640.282 275.233C640.121 275.115 639.996 274.954 639.922 274.768C639.848 274.582 639.827 274.38 639.862 274.183L640.439 270.876L638.009 268.548C637.864 268.409 637.761 268.232 637.711 268.037C637.662 267.842 637.668 267.637 637.73 267.446C637.791 267.255 637.905 267.084 638.059 266.955C638.213 266.826 638.4 266.742 638.599 266.714L641.972 266.232L643.495 263.194C643.583 263.016 643.72 262.865 643.889 262.76C644.058 262.654 644.254 262.599 644.453 262.599C644.653 262.599 644.848 262.654 645.018 262.76C645.187 262.865 645.324 263.016 645.412 263.194L646.935 266.232L650.307 266.714C650.506 266.742 650.694 266.825 650.848 266.955C651.002 267.084 651.116 267.254 651.178 267.446C651.239 267.637 651.246 267.842 651.196 268.037C651.147 268.232 651.043 268.409 650.897 268.548L648.468 270.876L649.045 274.183C649.08 274.38 649.059 274.583 648.985 274.769C648.91 274.954 648.785 275.115 648.624 275.234C648.463 275.352 648.272 275.422 648.072 275.438C647.873 275.453 647.673 275.411 647.496 275.319L644.453 273.746L641.41 275.318Z" fill="#E1E4E5"/>
<path fill-rule="evenodd" clip-rule="evenodd" d="M577.459 269.018V300.539C577.477 302.15 576.96 303.721 575.99 305.007C575.019 306.294 573.65 307.222 572.096 307.647C561.065 310.257 549.577 310.257 538.546 307.647C536.992 307.222 535.623 306.294 534.652 305.007C533.682 303.721 533.165 302.15 533.183 300.539V269.018" fill="white"/>
<path d="M577.459 269.018V300.539C577.477 302.15 576.96 303.721 575.99 305.007C575.019 306.294 573.65 307.222 572.096 307.647C561.065 310.257 549.577 310.257 538.546 307.647C536.992 307.222 535.623 306.294 534.652 305.007C533.682 303.721 533.165 302.15 533.183 300.539V269.018" stroke="white" stroke-width="7.76" stroke-linecap="round" stroke-linejoin="round"/>
<path fill-rule="evenodd" clip-rule="evenodd" d="M577.517 276.397L589.417 273.594C589.902 273.479 590.36 273.267 590.761 272.971C591.163 272.674 591.5 272.299 591.752 271.869C592.005 271.439 592.167 270.961 592.23 270.466C592.293 269.971 592.255 269.469 592.118 268.989L587.643 253.324C587.064 251.3 586.059 249.423 584.696 247.819C583.332 246.215 581.642 244.922 579.737 244.025L573.109 240.905C571.143 239.98 568.997 239.5 566.824 239.5H543.906C541.733 239.5 539.587 239.98 537.621 240.905L530.992 244.025C529.088 244.922 527.397 246.215 526.033 247.819C524.67 249.423 523.665 251.3 523.087 253.324L518.611 268.989C518.474 269.469 518.436 269.971 518.499 270.467C518.561 270.962 518.724 271.439 518.976 271.869C519.229 272.3 519.566 272.675 519.968 272.971C520.369 273.267 520.827 273.479 521.313 273.594L533.212 276.397" fill="white"/>
<path d="M577.517 276.397L589.417 273.594C589.902 273.479 590.36 273.267 590.761 272.971C591.163 272.674 591.5 272.299 591.752 271.869C592.005 271.439 592.167 270.961 592.23 270.466C592.293 269.971 592.255 269.469 592.118 268.989L587.643 253.324C587.064 251.3 586.059 249.423 584.696 247.819C583.332 246.215 581.642 244.922 579.737 244.025L573.109 240.905C571.143 239.98 568.997 239.5 566.824 239.5H543.906C541.733 239.5 539.587 239.98 537.621 240.905L530.992 244.025C529.088 244.922 527.397 246.215 526.033 247.819C524.67 249.423 523.665 251.3 523.087 253.324L518.611 268.989C518.474 269.469 518.436 269.971 518.499 270.467C518.561 270.962 518.724 271.439 518.976 271.869C519.229 272.3 519.566 272.675 519.968 272.971C520.369 273.267 520.827 273.479 521.313 273.594L533.212 276.397" stroke="white" stroke-width="7.76" stroke-linecap="round" stroke-linejoin="round"/>
<path fill-rule="evenodd" clip-rule="evenodd" d="M716.121 445.985H657.664C649.276 445.985 642.606 438.936 643.074 430.563L646.065 376.704C646.64 366.377 655.179 358.3 665.522 358.3H708.268C718.61 358.3 727.15 366.377 727.725 376.704L730.716 430.557C731.178 438.936 724.51 445.985 716.121 445.985Z" fill="#4F5B93" stroke="#4F5B93" stroke-width="10.25" stroke-linecap="round" stroke-linejoin="round"/>
<path d="M701.864 372.202C701.864 379.681 695.161 385.746 686.894 385.746C678.626 385.746 671.923 379.681 671.923 372.202" stroke="white" stroke-width="8.625" stroke-linecap="round" stroke-linejoin="round"/>
<path d="M721.928 320.889C723.414 331.135 716.303 340.646 706.028 342.139C695.761 343.632 686.229 336.534 684.736 326.288C683.25 316.049 690.369 306.532 700.636 305.039C710.911 303.545 720.442 310.643 721.928 320.889Z" fill="url(#paint0_linear_914_72)"/>
<path d="M717.506 321.533C718.638 329.338 713.218 336.591 705.391 337.73C697.565 338.862 690.298 333.456 689.166 325.651C688.033 317.839 693.454 310.586 701.28 309.454C709.107 308.314 716.367 313.721 717.506 321.533Z" fill="white"/>
<path d="M706.119 331.716L706.53 334.203L704.244 334.56L703.847 332.138C701.562 332.359 699.283 332.009 697.872 331.245L698.681 328.343C699.959 328.987 701.701 329.329 703.37 329.23L702.759 325.521C700.129 325.314 697.159 324.935 696.637 321.763C696.248 319.412 697.673 317.119 701.216 316.154L700.812 313.689L703.098 313.332L703.495 315.754C705.229 315.618 706.971 315.804 708.353 316.383L707.662 319.291C706.391 318.826 705.141 318.633 703.98 318.676L704.605 322.449C707.236 322.628 710.153 323.02 710.668 326.15C711.043 328.465 709.639 330.737 706.119 331.716ZM702.223 322.256L701.701 319.105C700.533 319.562 700.165 320.277 700.282 321.013C700.415 321.784 701.165 322.106 702.223 322.256ZM707.03 327C706.905 326.221 706.17 325.907 705.133 325.721L705.641 328.787C706.743 328.365 707.148 327.708 707.03 327Z" fill="#E1E4E5"/>
<path d="M469.22 222.571C470.159 229.039 465.669 235.042 459.184 235.984C452.703 236.927 446.687 232.447 445.744 225.979C444.806 219.515 449.299 213.508 455.781 212.566C462.266 211.623 468.282 216.103 469.22 222.571Z" fill="url(#paint1_linear_914_72)"/>
<path d="M466.429 222.977C467.144 227.904 463.723 232.482 458.782 233.201C453.842 233.916 449.255 230.504 448.54 225.577C447.825 220.645 451.247 216.067 456.187 215.353C461.127 214.633 465.71 218.046 466.429 222.977Z" fill="#EB4433"/>
<path d="M459.241 229.405L459.5 230.975L458.058 231.2L457.807 229.671C456.364 229.811 454.926 229.59 454.035 229.108L454.546 227.276C455.353 227.682 456.453 227.898 457.505 227.835L457.12 225.495C455.459 225.364 453.585 225.124 453.256 223.122C453.01 221.638 453.91 220.19 456.146 219.582L455.891 218.026L457.334 217.8L457.584 219.329C458.679 219.243 459.779 219.361 460.651 219.726L460.215 221.562C459.413 221.268 458.624 221.147 457.891 221.174L458.285 223.555C459.946 223.668 461.788 223.916 462.113 225.891C462.349 227.353 461.463 228.787 459.241 229.405ZM456.782 223.434L456.453 221.444C455.715 221.733 455.483 222.184 455.557 222.649C455.641 223.136 456.114 223.339 456.782 223.434ZM459.816 226.428C459.737 225.936 459.273 225.738 458.619 225.621L458.939 227.556C459.635 227.29 459.891 226.875 459.816 226.428Z" fill="white"/>
<path d="M473.24 301.049C474.601 310.427 468.092 319.131 458.687 320.498C449.29 321.865 440.566 315.369 439.2 305.991C437.839 296.619 444.355 287.908 453.753 286.541C463.156 285.175 471.881 291.671 473.24 301.049Z" fill="url(#paint2_linear_914_72)"/>
<path d="M469.193 301.639C470.23 308.782 465.268 315.421 458.105 316.463C450.942 317.5 444.29 312.552 443.254 305.408C442.218 298.258 447.179 291.62 454.342 290.583C461.506 289.541 468.151 294.489 469.193 301.639Z" fill="white"/>
<path d="M458.771 310.959L459.147 313.235L457.055 313.562L456.692 311.345C454.6 311.548 452.514 311.227 451.223 310.527L451.963 307.872C453.134 308.461 454.728 308.775 456.255 308.683L455.696 305.289C453.288 305.1 450.571 304.753 450.093 301.849C449.736 299.697 451.041 297.598 454.284 296.716L453.914 294.459L456.006 294.132L456.369 296.349C457.957 296.225 459.551 296.395 460.816 296.925L460.184 299.587C459.02 299.162 457.876 298.985 456.813 299.024L457.385 302.477C459.794 302.64 462.464 303 462.935 305.864C463.278 307.984 461.993 310.063 458.771 310.959ZM455.205 302.3L454.728 299.416C453.658 299.835 453.322 300.489 453.429 301.163C453.551 301.869 454.237 302.163 455.205 302.3ZM459.605 306.643C459.491 305.93 458.818 305.642 457.87 305.472L458.334 308.277C459.343 307.892 459.713 307.29 459.605 306.643Z" fill="#E1E4E5"/>
<path d="M514.258 395.26H589.498C590.956 395.26 592.138 396.442 592.138 397.9C592.138 399.358 590.956 400.54 589.498 400.54H514.258C512.8 400.54 511.618 399.358 511.618 397.9C511.618 396.442 512.8 395.26 514.258 395.26Z" fill="white"/>
<path d="M514.258 379.42H583.558C585.016 379.42 586.198 380.602 586.198 382.06C586.198 383.518 585.016 384.7 583.558 384.7H514.258C512.8 384.7 511.618 383.518 511.618 382.06C511.618 380.602 512.8 379.42 514.258 379.42Z" fill="white"/>
<path d="M514.258 363.58H592.798C594.256 363.58 595.438 364.762 595.438 366.22C595.438 367.678 594.256 368.86 592.798 368.86H514.258C512.8 368.86 511.618 367.678 511.618 366.22C511.618 364.762 512.8 363.58 514.258 363.58Z" fill="white"/>
<path fill-rule="evenodd" clip-rule="evenodd" d="M696.75 279.1C684.904 279.1 675.3 269.496 675.3 257.65C675.3 245.805 684.904 236.2 696.75 236.2C708.596 236.2 718.2 245.805 718.2 257.65C718.2 269.496 708.596 279.1 696.75 279.1Z" fill="#EB4433"/>
<path d="M703.901 254.399L694.965 263.499L689.601 258.041" stroke="white" stroke-width="4.883" stroke-linecap="round" stroke-linejoin="round"/>
<path fill-rule="evenodd" clip-rule="evenodd" d="M656.49 239.5C649.747 239.5 644.28 234.033 644.28 227.29C644.28 220.547 649.747 215.08 656.49 215.08C663.233 215.08 668.7 220.547 668.7 227.29C668.7 234.033 663.233 239.5 656.49 239.5Z" fill="#4F5B93"/>
<path d="M660.56 225.44L655.474 230.62L652.42 227.512" stroke="white" stroke-width="2.892" stroke-linecap="round" stroke-linejoin="round"/>
<path d="M436.354 246.76H396.78C389.49 246.76 383.58 252.67 383.58 259.96V283.442C383.58 290.732 389.49 296.642 396.78 296.642H436.354C443.644 296.642 449.554 290.732 449.554 283.442V259.96C449.554 252.67 443.644 246.76 436.354 246.76Z" fill="#4F5B93"/>
<path d="M422.892 290.9L419.565 287.573C417.761 285.769 414.835 285.769 413.031 287.573L409.704 290.9C407.9 292.705 407.9 295.63 409.704 297.434L413.031 300.762C414.835 302.566 417.761 302.566 419.565 300.762L422.892 297.434C424.697 295.63 424.697 292.705 422.892 290.9Z" fill="#4F5B93"/>
<path fill-rule="evenodd" clip-rule="evenodd" d="M423.285 257.488C429.056 257.488 432.925 262.882 432.925 267.905C432.925 278.103 416.859 286.451 416.567 286.451C416.274 286.451 400.207 278.103 400.207 267.905C400.207 262.882 404.077 257.488 409.849 257.488C413.147 257.488 415.314 259.126 416.567 260.585C417.819 259.126 419.985 257.488 423.285 257.488Z" fill="white"/>
</g>
<defs>
<linearGradient id="paint0_linear_914_72" x1="704.134" y1="363.36" x2="702.98" y2="264.05" gradientUnits="userSpaceOnUse">
<stop stop-color="white"/>
<stop offset="1" stop-color="#EEEEEE"/>
</linearGradient>
<linearGradient id="paint1_linear_914_72" x1="457.988" y1="249.38" x2="457.26" y2="186.692" gradientUnits="userSpaceOnUse">
<stop stop-color="white"/>
<stop offset="1" stop-color="#EEEEEE"/>
</linearGradient>
<linearGradient id="paint2_linear_914_72" x1="456.954" y1="339.921" x2="455.898" y2="249.026" gradientUnits="userSpaceOnUse">
<stop stop-color="white"/>
<stop offset="1" stop-color="#EEEEEE"/>
</linearGradient>
<clipPath id="clip0_914_72">
<rect width="166.744" height="90" fill="white" transform="translate(35 30)"/>
</clipPath>
<clipPath id="clip1_914_72">
<rect width="594" height="396" fill="white" transform="translate(243 124)"/>
</clipPath>
</defs>
</svg>
